<svg width="1282" height="288" viewBox="0 0 1282 288" fill="none" xmlns="http://www.w3.org/2000/svg">
<path d="M241.236 225.04H190.532C185.832 212.673 181.133 199.564 175.939 186.455C144.032 185.466 100.005 185.466 67.8511 186.208C62.1623 199.811 56.9682 213.168 52.0214 225.04H3.54272C33.4709 163.7 61.1729 102.112 87.1436 40.7717C104.952 42.9977 139.332 43.9871 157.141 40.7717C183.112 102.112 211.308 163.7 241.236 225.04ZM78.2394 160.979C104.705 161.721 139.332 161.721 165.798 160.979C152.194 126.846 137.106 92.7131 121.277 63.527C111.136 82.3248 94.5638 121.405 78.2394 160.979Z" fill="white"/>
<path d="M305.511 225.04H259.011C261.979 178.787 261.979 86.7769 259.011 40.7717C301.554 41.5137 327.524 40.0297 367.099 40.0297C436.107 40.0297 468.508 57.0961 468.508 93.9498C468.508 140.944 412.609 148.859 387.133 148.859V152.075C436.107 160.484 463.561 197.833 476.176 225.04H417.556C409.147 178.54 385.897 160.237 334.945 156.527C323.072 155.785 313.179 155.537 302.79 155.537C303.285 189.176 304.027 205.747 305.511 225.04ZM302.543 129.814C319.61 130.309 339.397 131.545 358.442 131.545C400.49 131.545 423.245 122.641 423.245 98.4019C423.245 75.894 400.984 67.9791 365.862 67.9791C342.117 67.9791 318.125 68.7211 303.285 68.7211C302.79 87.7663 302.543 107.801 302.543 129.814Z" fill="white"/>
<path d="M618.858 229.245C537.483 229.245 491.477 191.896 491.477 132.04C491.477 69.4631 542.43 36.0722 622.815 36.0722C651.506 36.0722 684.403 40.277 723.977 56.6014C722.246 70.9472 722.246 81.5828 723.977 95.9285C684.155 71.9365 649.775 66.0004 625.041 65.753C569.637 65.5057 534.515 89.4977 534.515 132.04C534.515 172.109 564.195 199.317 623.557 199.317C658.679 199.317 693.06 189.176 723.977 159.99C722.493 174.583 724.966 188.434 726.698 198.327C698.748 218.609 666.842 229.245 618.858 229.245Z" fill="white"/>
<path d="M969.557 225.04H924.541C925.778 206.489 926.52 180.519 926.767 153.064C885.461 150.591 841.435 150.838 800.624 153.311C800.871 180.766 801.613 206.737 803.097 225.04H758.081C761.049 178.787 761.049 87.0243 758.081 40.7717C773.416 42.9977 788.257 43.2451 802.602 40.7717C801.366 61.7956 800.624 92.4658 800.376 123.878C840.94 126.351 884.967 126.599 926.767 124.125C926.52 92.7131 925.778 62.0429 924.541 40.7717C939.876 42.9977 954.717 43.2451 968.815 40.7717C966.094 87.0243 966.094 179.282 969.557 225.04Z" fill="white"/>
<path d="M1050.9 225.04H1003.9C1006.87 178.787 1006.87 87.0243 1003.9 40.7717C1019.73 42.9977 1035.56 43.2451 1050.4 40.7717C1047.43 87.0243 1047.43 179.282 1050.9 225.04Z" fill="white"/>
<path d="M1134.24 225.04H1086.01C1088.98 178.787 1088.98 86.7769 1086.01 40.7717C1115.2 43.2451 1229.47 44.9765 1274.73 41.2664C1273.74 53.6334 1273.74 66.2477 1274.73 78.6147C1240.1 72.1839 1174.81 68.2264 1130.78 68.7211C1130.04 88.0136 1130.04 107.553 1130.28 127.093C1173.57 127.835 1222.79 125.857 1256.68 123.631C1255.69 133.03 1255.69 144.654 1256.68 154.795C1222.79 152.817 1173.32 151.085 1130.28 152.075C1130.28 175.819 1131.03 201.048 1134.24 225.04Z" fill="white"/>
</svg>
