<svg width="208" height="204" viewBox="0 0 208 204" fill="none" xmlns="http://www.w3.org/2000/svg">
<path d="M153.551 22.7867C159.289 22.9286 164.995 24.2972 170.182 26.7759C168.819 30.2334 166.932 33.4808 164.608 36.371" stroke="#3CB689" stroke-width="2.44673" stroke-linecap="round" stroke-linejoin="round"/>
<path d="M166.381 67.7395C170.687 65.4385 176.308 65.9155 180.172 68.9099C181.3 69.7839 182.275 70.842 183.173 71.9549C184.45 73.5396 185.595 75.2785 186.177 77.2344C186.759 79.1903 186.727 81.3963 185.746 83.183" stroke="#3CB689" stroke-width="2.44673" stroke-linecap="round" stroke-linejoin="round"/>
<path d="M194.828 114.881C196.526 117.291 197.226 120.392 196.73 123.305C196.234 126.218 194.547 128.906 192.148 130.606" stroke="#3CB689" stroke-width="2.44673" stroke-linecap="round" stroke-linejoin="round"/>
<path d="M158.232 177.88C162.5 177.171 166.792 176.407 170.829 174.843C174.866 173.279 178.676 170.851 181.247 167.347C185.614 161.396 185.799 153.43 185.807 146.029" stroke="#3CB689" stroke-width="2.44673" stroke-linecap="round" stroke-linejoin="round"/>
<path d="M190.623 140.502C191.861 145.319 192.929 150.18 193.823 155.073C191.051 157.353 188.017 159.31 184.801 160.892" stroke="#3CB689" stroke-width="2.44673" stroke-linecap="round" stroke-linejoin="round"/>
<path d="M78.748 168.081C84.881 170.417 92.097 169.635 97.5968 166.038" stroke="#3CB689" stroke-width="2.44673" stroke-linecap="round" stroke-linejoin="round"/>
<path d="M23.3744 119.33C21.0825 115.563 18.7704 111.753 17.4018 107.555C16.0332 103.358 15.6758 98.6722 17.3038 94.5695C18.9468 90.4291 22.6281 87.1699 26.9138 86.0613" stroke="#3CB689" stroke-width="2.44673" stroke-linecap="round" stroke-linejoin="round"/>
<path d="M109.638 180.166L108.453 181.022C107.078 182.014 105.662 183.027 104.023 183.446C100.391 184.373 96.5592 182.059 94.5129 178.896C92.4665 175.734 91.8093 171.888 91.1973 168.163" stroke="#3CB689" stroke-width="2.44673" stroke-linecap="round" stroke-linejoin="round"/>
<path d="M19.526 88.3194L17.4065 80.5289C16.9226 78.7501 16.434 76.9206 16.624 75.0861C16.8141 73.2515 17.8392 71.3839 19.5573 70.748C20.276 70.482 21.2163 70.3113 21.4117 69.5652C21.5341 69.0976 21.2792 68.6254 21.073 68.1886C19.9813 65.877 20.1471 63.008 21.4977 60.8397C22.8483 58.6714 25.34 57.2739 27.8802 57.2599C28.5496 57.2563 29.2772 57.3267 29.831 56.9476C30.327 56.6081 30.5476 55.9971 30.783 55.4413C32.364 51.7078 35.9985 48.9392 39.9939 48.4249" stroke="#3CB689" stroke-width="2.44673" stroke-linecap="round" stroke-linejoin="round"/>
<path d="M55.1314 35.9027C53.9251 33.5805 54.2442 30.6402 55.5794 28.3908C56.9146 26.1414 59.1465 24.5362 61.5589 23.5564C63.8574 22.6228 66.3616 22.208 68.8357 22.3509C70.7429 22.4611 72.8092 23.016 73.8983 24.5977" stroke="#3CB689" stroke-width="2.44673" stroke-linecap="round" stroke-linejoin="round"/>
<path d="M86.4831 7.20276C84.1879 4.61798 80.8977 3.08201 77.5217 2.40712C74.1457 1.73224 70.6629 1.85721 67.235 2.16764C66.8957 2.19836 66.5349 2.23947 66.2706 2.45583C66.0202 2.66069 65.9036 2.98457 65.8029 3.29334C63.7884 9.47134 62.4934 15.2384 63.9531 21.7916" stroke="#3CB689" stroke-width="2.44673" stroke-linecap="round" stroke-linejoin="round"/>
<path d="M30.9787 111.602C27.6254 99.5636 27.3478 86.6686 30.1799 74.4948C30.4743 73.2292 30.886 71.8502 31.9787 71.1596C32.7116 70.6966 33.6188 70.6362 34.4835 70.6152C37.7849 70.5348 41.0953 70.8383 44.3281 71.5177C41.9112 65.7449 40.4724 59.4095 41.282 53.1972C42.0916 46.9848 45.3824 40.9231 50.7405 37.7453C56.0987 34.5674 63.547 34.8355 68.0756 39.1284C70.6723 33.0022 74.0365 27.2068 78.0629 21.9234C78.9607 20.7454 79.9402 19.5533 81.2794 18.933C82.592 18.325 84.0987 18.3384 85.5381 18.4619C92.1609 19.0298 98.5862 21.7422 103.634 26.1008C108.804 30.5658 112.898 36.8959 119.446 38.7786C128.217 35.5685 137.613 34.1025 146.936 34.4893C152.39 45.494 159.307 55.8119 170.178 61.4047C165.389 71.7303 153.003 79.076 153.003 79.076C159.302 77.0583 163.043 76.8116 169.499 78.2352C175.956 79.6588 182.04 83.8374 184.612 89.9734C187.184 96.1094 182.71 112.289 177.19 115.952C182.673 118.709 190.424 129.59 194.679 134.034C185.546 145.011 174.136 154.834 160.34 158.283C155.182 159.572 147.108 152.757 141.858 153.592C127.275 155.913 113.297 161.996 101.621 171.104C98.294 166.001 96.3322 160.003 95.9958 153.907C94.9052 155.174 93.2361 155.737 91.6505 156.246C79.1755 160.251 65.1737 164.166 53.4521 158.287C43.9199 153.507 38.051 142.224 39.573 131.604C40.5245 124.964 32.7778 118.061 30.9787 111.602L30.9787 111.602Z" fill="#C6D5FB" stroke="#1D5B45" stroke-width="2.44673" stroke-linecap="round" stroke-linejoin="round"/>
<path d="M169.504 46.4055C161.542 32.9206 152.431 18.8237 138.111 12.6634C133.163 10.5352 127.829 9.48103 122.504 8.72032C106.18 6.38876 89.4868 6.70045 73.2598 9.63981C79.9944 22.5449 87.4991 35.6814 97.5548 46.1649C107.611 56.6484 121.472 64.3483 135.921 63.612C141.485 63.3285 146.936 61.8165 152.093 59.6942C158.362 57.1144 165.415 51.8452 169.504 46.4055V46.4055Z" fill="#3CB689" stroke="#1D5B45" stroke-width="2.44673" stroke-linecap="round" stroke-linejoin="round"/>
<path d="M182.626 54.3986C176.282 49.0866 168.408 46.0589 160.692 43.1219C139.661 35.1168 118.602 27.1023 96.9961 20.8402" stroke="#1D5B45" stroke-width="2.44673" stroke-linecap="round" stroke-linejoin="round"/>
<path d="M146.503 187.264C148.735 186.084 150.683 184.421 152.474 182.632C165.794 169.329 170.46 147.952 163.909 130.244C163.549 129.27 163.142 128.282 162.426 127.535C159.306 124.279 145.028 123.118 132.239 130.75C117.858 139.333 111.474 149.452 108.969 159.57C106.464 169.687 110.915 179.215 117.535 184.685C124.155 190.154 136.192 192.715 146.503 187.264H146.503Z" fill="#3CB689" stroke="#1D5B45" stroke-width="2.44673" stroke-linecap="round" stroke-linejoin="round"/>
<path d="M152.061 137.046C134.371 156.111 120.094 178.382 110.121 202.471" stroke="#1D5B45" stroke-width="2.44673" stroke-linecap="round" stroke-linejoin="round"/>
<path d="M43.3939 109.532C54.5738 107.345 66.9024 110.859 76.1418 120.162C80.1685 124.216 83.2277 129.239 84.9913 134.693C90.6557 152.211 80.7256 173.354 63.6562 179.952C33.2886 191.689 5.98162 157.308 19.202 128.987C24.3344 117.992 33.4057 111.486 43.3939 109.532H43.3939Z" fill="#3CB689" stroke="#1D5B45" stroke-width="2.44673" stroke-linecap="round" stroke-linejoin="round"/>
<path d="M1.89258 116.901C22.9984 124.641 42.9701 135.514 60.964 149.06" stroke="#1D5B45" stroke-width="2.44673" stroke-linecap="round" stroke-linejoin="round"/>
<path d="M206.411 79.7796C195.63 80.3212 180.495 82.7991 168.384 95.3017C159.408 73.3964 144.93 61.8336 126.62 46.9629C123.917 68.1911 124.214 85.1609 129.859 105.793C116 105.576 100.173 109.388 89.7676 117.049C97.4148 126.53 108.285 133.059 119.868 136.664C134.711 141.283 152.708 142.768 167.704 138.425C181.837 134.332 191.422 121.018 197.893 108.24C202.386 99.3663 205.335 89.6884 206.411 79.7796H206.411Z" fill="#C6D5FB" stroke="#1D5B45" stroke-width="2.44673" stroke-linecap="round" stroke-linejoin="round"/>
<path d="M140.732 78.7823C150.997 106.88 164.917 133.618 182.024 158.098" stroke="#1D5B45" stroke-width="2.44673" stroke-linecap="round" stroke-linejoin="round"/>
<path d="M189.423 95.9263C180.118 103.634 168.291 118.694 164.73 130.284C147.177 123.655 130.582 121.359 115.557 120.808" stroke="#1D5B45" stroke-width="2.44673" stroke-linecap="round" stroke-linejoin="round"/>
<path d="M98.3544 144.094C82.0392 146.495 64.8639 142.648 51.333 118.887C44.7981 107.411 45.2069 95.0374 49.4075 90.6871C53.6082 86.3367 59.5008 87.6123 62.8786 91.9891C62.1559 86.5812 61.6576 80.4304 62.2272 75.004C62.7259 70.2531 64.8901 65.5305 68.4814 62.4123C72.0726 59.294 80.855 58.8123 84.0469 62.3443C87.4644 55.2713 91.401 47.9115 98.3353 44.2989C103.589 41.562 109.742 41.3717 115.279 43.4653C119.253 44.9678 124.443 48.8312 126.381 52.6364C130.062 59.8628 129.401 71.4177 120.855 83.0055C125.093 83.5738 128.376 87.5829 128.923 91.8557C129.471 96.1285 127.667 100.457 124.877 103.721C122.087 106.986 115.448 111.338 111.678 113.368C116.224 115.07 119.799 119.188 120.867 123.955C123.533 135.845 108.682 142.574 98.3544 144.094V144.094Z" fill="#3CB689" stroke="#1D5B45" stroke-width="2.44673" stroke-linecap="round" stroke-linejoin="round"/>
<path d="M108.262 60.0028C82.9119 100.613 69.659 137.855 66.8164 160.785" stroke="#1D5B45" stroke-width="2.44673" stroke-linecap="round" stroke-linejoin="round"/>
<path d="M44.334 71.5172C50.6138 72.628 56.6279 75.6039 61.9931 79.0755" stroke="#1D5B45" stroke-width="2.44673" stroke-linecap="round" stroke-linejoin="round"/>
<path d="M86.4297 178.938C88.963 166.297 94.4123 154.177 101.945 143.752" stroke="#1D5B45" stroke-width="2.44673" stroke-linecap="round" stroke-linejoin="round"/>
<path d="M35.1602 29.9673C45.4344 36.5426 53.816 46.0844 59.0462 57.1599" stroke="#1D5B45" stroke-width="2.44673" stroke-linecap="round" stroke-linejoin="round"/>
<path d="M68.0754 39.1278C67.1444 41.8601 66.5838 44.605 66.4785 47.492C69.0328 48.0539 71.6509 48.3211 74.2652 48.2866C73.1681 52.1167 72.7326 56.1384 72.9842 60.1169" stroke="#1D5B45" stroke-width="2.44673" stroke-linecap="round" stroke-linejoin="round"/>
<path d="M164.883 181.356C162.87 177.324 161.924 172.758 162.166 168.251" stroke="#1D5B45" stroke-width="2.44673" stroke-linecap="round" stroke-linejoin="round"/>
<path d="M22.0859 100.928C24.1398 101.358 26.2582 101.473 28.346 101.268" stroke="#1D5B45" stroke-width="2.44673" stroke-linecap="round" stroke-linejoin="round"/>
</svg>
