<svg width="55" height="18" viewBox="0 0 55 18" fill="none" xmlns="http://www.w3.org/2000/svg">
<path d="M20.167 16.9003L22.9606 1.18604H27.3257L24.6194 16.9003H20.167Z" fill="#3C58BF"/>
<path d="M20.167 16.9003L23.7464 1.18604H27.3257L24.6194 16.9003H20.167Z" fill="#293688"/>
<path d="M40.4206 1.3604C39.5476 1.01119 38.1508 0.661987 36.4047 0.661987C32.0397 0.661987 28.8968 2.84453 28.8968 5.98738C28.8968 8.34453 31.0793 9.56675 32.8254 10.3525C34.5714 11.1382 35.0952 11.662 35.0952 12.3604C35.0952 13.408 33.6984 13.9318 32.4762 13.9318C30.7301 13.9318 29.7698 13.6699 28.2857 13.0588L27.6746 12.7969L27.0635 16.3763C28.1111 16.8128 30.0317 17.2493 32.0397 17.2493C36.6667 17.2493 39.7222 15.0668 39.7222 11.7493C39.7222 9.91596 38.5873 8.51913 35.9682 7.38421C34.3968 6.59849 33.4365 6.16199 33.4365 5.37627C33.4365 4.67786 34.2222 3.97945 35.9682 3.97945C37.4524 3.97945 38.5 4.24135 39.2857 4.59056L39.7222 4.76516L40.4206 1.3604Z" fill="#3C58BF"/>
<path d="M40.4206 1.3604C39.5476 1.01119 38.1508 0.661987 36.4047 0.661987C32.0397 0.661987 29.6825 2.84453 29.6825 5.98738C29.6825 8.34453 31.0793 9.56675 32.8254 10.3525C34.5714 11.1382 35.0952 11.662 35.0952 12.3604C35.0952 13.408 33.6984 13.9318 32.4762 13.9318C30.7301 13.9318 29.7698 13.6699 28.2857 13.0588L27.6746 12.7969L27.0635 16.3763C28.1111 16.8128 30.0317 17.2493 32.0397 17.2493C36.6667 17.2493 39.7222 15.0668 39.7222 11.7493C39.7222 9.91596 38.5873 8.51913 35.9682 7.38421C34.3968 6.59849 33.4365 6.16199 33.4365 5.37627C33.4365 4.67786 34.2222 3.97945 35.9682 3.97945C37.4524 3.97945 38.5 4.24135 39.2857 4.59056L39.7222 4.76516L40.4206 1.3604Z" fill="#293688"/>
<path d="M47.9288 1.18604C46.8811 1.18604 46.0954 1.27334 45.6589 2.32096L39.1113 16.9003H43.8256L44.6986 14.2813H50.2859L50.8097 16.9003H55.0002L51.3335 1.18604H47.9288ZM45.9208 11.6622C46.1827 10.8765 47.6669 7.03524 47.6669 7.03524C47.6669 7.03524 48.0161 6.07492 48.278 5.46381L48.5399 6.94794C48.5399 6.94794 49.4129 10.8765 49.5875 11.7495H45.9208V11.6622Z" fill="#3C58BF"/>
<path d="M48.9764 1.18604C47.9288 1.18604 47.143 1.27334 46.7065 2.32096L39.1113 16.9003H43.8256L44.6986 14.2813H50.2859L50.8097 16.9003H55.0002L51.3335 1.18604H48.9764ZM45.9208 11.6622C46.27 10.7892 47.6669 7.03524 47.6669 7.03524C47.6669 7.03524 48.0161 6.07492 48.278 5.46381L48.5399 6.94794C48.5399 6.94794 49.4129 10.8765 49.5875 11.7495H45.9208V11.6622Z" fill="#293688"/>
<path d="M12.1355 12.186L11.699 9.91616C10.9133 7.29711 8.38154 4.41617 5.58789 3.01934L9.51646 16.9876H14.2307L21.3022 1.27332H16.5879L12.1355 12.186Z" fill="#3C58BF"/>
<path d="M12.1355 12.186L11.699 9.91616C10.9133 7.29711 8.38154 4.41617 5.58789 3.01934L9.51646 16.9876H14.2307L21.3022 1.27332H17.4609L12.1355 12.186Z" fill="#293688"/>
<path d="M0 1.18604L0.785714 1.36064C6.37302 2.67016 10.2143 5.98762 11.6984 9.91619L10.127 2.49556C9.86508 1.44794 9.07936 1.18604 8.11905 1.18604H0Z" fill="#FFBC00"/>
<path d="M0 1.18604C5.5873 2.49556 10.2143 5.90032 11.6984 9.82889L10.2143 3.63048C9.95238 2.58286 9.07936 1.97175 8.11905 1.97175L0 1.18604Z" fill="#F7981D"/>
<path d="M0 1.18604C5.5873 2.49556 10.2143 5.90032 11.6984 9.82889L10.6508 6.42413C10.3889 5.37651 10.0397 4.32889 8.81746 3.89238L0 1.18604Z" fill="#ED7C00"/>
<path d="M16.5002 11.6623L13.5319 8.69403L12.1351 12.0115L11.7859 9.82896C11.0002 7.20991 8.46846 4.32895 5.6748 2.93213L9.60338 16.9004H14.3177L16.5002 11.6623Z" fill="#051244"/>
<path d="M24.6194 16.9003L20.8654 13.0591L20.167 16.9003H24.6194Z" fill="#051244"/>
<path d="M34.6587 11.4878C35.0079 11.837 35.1825 12.0989 35.0952 12.4481C35.0952 13.4957 33.6984 14.0195 32.4762 14.0195C30.7301 14.0195 29.7698 13.7576 28.2857 13.1465L27.6746 12.8846L27.0635 16.464C28.1111 16.9005 30.0317 17.337 32.0397 17.337C34.8333 17.337 37.1032 16.5513 38.4127 15.1545L34.6587 11.4878Z" fill="#051244"/>
<path d="M39.7227 16.9005H43.8258L44.6988 14.2814H50.2861L50.81 16.9005H55.0004L53.5163 10.5275L48.2782 5.46399L48.5401 6.86081C48.5401 6.86081 49.4131 10.7894 49.5877 11.6624H45.9211C46.2703 10.7894 47.6671 7.03542 47.6671 7.03542C47.6671 7.03542 48.0163 6.0751 48.2782 5.46399" fill="#051244"/>
</svg>
