<svg width="44" height="32" viewBox="0 0 44 32" fill="none" xmlns="http://www.w3.org/2000/svg">
<path d="M19.5625 3.625V21.5C19.5598 24.085 18.5317 26.5634 16.7038 28.3913C14.8759 30.2192 12.3975 31.2473 9.8125 31.25C9.38152 31.25 8.9682 31.0788 8.66345 30.774C8.35871 30.4693 8.1875 30.056 8.1875 29.625C8.1875 29.194 8.35871 28.7807 8.66345 28.476C8.9682 28.1712 9.38152 28 9.8125 28C11.5364 28 13.1897 27.3152 14.4087 26.0962C15.6277 24.8772 16.3125 23.2239 16.3125 21.5V19.875H4.125C3.26305 19.875 2.4364 19.5326 1.8269 18.9231C1.21741 18.3136 0.875 17.487 0.875 16.625V3.625C0.875 2.76305 1.21741 1.9364 1.8269 1.3269C2.4364 0.71741 3.26305 0.375 4.125 0.375H16.3125C17.1745 0.375 18.0011 0.71741 18.6106 1.3269C19.2201 1.9364 19.5625 2.76305 19.5625 3.625ZM39.875 0.375H27.6875C26.8255 0.375 25.9989 0.71741 25.3894 1.3269C24.7799 1.9364 24.4375 2.76305 24.4375 3.625V16.625C24.4375 17.487 24.7799 18.3136 25.3894 18.9231C25.9989 19.5326 26.8255 19.875 27.6875 19.875H39.875V21.5C39.875 23.2239 39.1902 24.8772 37.9712 26.0962C36.7522 27.3152 35.0989 28 33.375 28C32.944 28 32.5307 28.1712 32.226 28.476C31.9212 28.7807 31.75 29.194 31.75 29.625C31.75 30.056 31.9212 30.4693 32.226 30.774C32.5307 31.0788 32.944 31.25 33.375 31.25C35.96 31.2473 38.4384 30.2192 40.2663 28.3913C42.0942 26.5634 43.1223 24.085 43.125 21.5V3.625C43.125 2.76305 42.7826 1.9364 42.1731 1.3269C41.5636 0.71741 40.737 0.375 39.875 0.375Z" fill="black"/>
</svg>
