<svg width="16" height="14" viewBox="0 0 16 14" fill="none" xmlns="http://www.w3.org/2000/svg">
<path d="M15.5952 7.70018L9.95417 13.3413C9.83656 13.4589 9.67704 13.5249 9.51072 13.5249C9.34439 13.5249 9.18488 13.4589 9.06727 13.3413C8.94966 13.2236 8.88358 13.0641 8.88358 12.8978C8.88358 12.7315 8.94966 12.572 9.06727 12.4544L13.6389 7.88352H1.3625C1.19627 7.88352 1.03684 7.81748 0.919299 7.69994C0.801754 7.58239 0.735718 7.42297 0.735718 7.25673C0.735718 7.0905 0.801754 6.93107 0.919299 6.81353C1.03684 6.69598 1.19627 6.62995 1.3625 6.62995H13.6389L9.06727 2.05911C8.94966 1.9415 8.88358 1.78199 8.88358 1.61566C8.88358 1.44933 8.94966 1.28982 9.06727 1.17221C9.18488 1.0546 9.34439 0.988525 9.51072 0.988525C9.67704 0.988525 9.83656 1.0546 9.95417 1.17221L15.5952 6.81328C15.6535 6.87149 15.6997 6.94062 15.7313 7.01671C15.7628 7.0928 15.7791 7.17436 15.7791 7.25673C15.7791 7.3391 15.7628 7.42066 15.7313 7.49675C15.6997 7.57284 15.6535 7.64197 15.5952 7.70018Z" fill="#6B7280"/>
</svg>
