<svg width="16" height="14" viewBox="0 0 16 14" fill="none" xmlns="http://www.w3.org/2000/svg">
<path d="M1.06199 7.70018L6.70306 13.3413C6.82067 13.4589 6.98018 13.5249 7.14651 13.5249C7.31284 13.5249 7.47235 13.4589 7.58996 13.3413C7.70757 13.2236 7.77364 13.0641 7.77364 12.8978C7.77364 12.7315 7.70757 12.572 7.58996 12.4544L3.01834 7.88352H15.2947C15.461 7.88352 15.6204 7.81748 15.7379 7.69994C15.8555 7.58239 15.9215 7.42297 15.9215 7.25673C15.9215 7.0905 15.8555 6.93107 15.7379 6.81353C15.6204 6.69598 15.461 6.62995 15.2947 6.62995H3.01834L7.58996 2.05911C7.70757 1.9415 7.77364 1.78199 7.77364 1.61566C7.77364 1.44933 7.70757 1.28982 7.58996 1.17221C7.47235 1.0546 7.31284 0.988525 7.14651 0.988525C6.98018 0.988525 6.82067 1.0546 6.70306 1.17221L1.06199 6.81328C1.00371 6.87149 0.957479 6.94062 0.925937 7.01671C0.894394 7.0928 0.87816 7.17436 0.87816 7.25673C0.87816 7.3391 0.894394 7.42066 0.925937 7.49675C0.957479 7.57284 1.00371 7.64197 1.06199 7.70018Z" fill="#1F2937"/>
</svg>
