<svg width="41" height="41" viewBox="0 0 41 41" fill="none" xmlns="http://www.w3.org/2000/svg">
<path d="M35.6871 28.0649V12.6586C35.6859 12.4361 35.6261 12.2178 35.5136 12.0258C35.4011 11.8338 35.24 11.6748 35.0465 11.5649L21.2965 3.83052C21.1112 3.72355 20.9011 3.66724 20.6871 3.66724C20.4732 3.66724 20.263 3.72355 20.0778 3.83052L6.32776 11.5649C6.13424 11.6748 5.97313 11.8338 5.86065 12.0258C5.74818 12.2178 5.68833 12.4361 5.68713 12.6586V28.0649C5.68833 28.2874 5.74818 28.5057 5.86065 28.6977C5.97313 28.8898 6.13424 29.0488 6.32776 29.1586L20.0778 36.893C20.263 37 20.4732 37.0563 20.6871 37.0563C20.9011 37.0563 21.1112 37 21.2965 36.893L35.0465 29.1586C35.24 29.0488 35.4011 28.8898 35.5136 28.6977C35.6261 28.5057 35.6859 28.2874 35.6871 28.0649V28.0649Z" stroke="#191C1F" stroke-width="1.5" stroke-linecap="round" stroke-linejoin="round"/>
<path d="M28.3434 24.1899V16.0649L13.1871 7.70557" stroke="#191C1F" stroke-width="1.5" stroke-linecap="round" stroke-linejoin="round"/>
<path d="M35.5153 12.0181L20.8278 20.3618L5.85901 12.0181" stroke="#191C1F" stroke-width="1.5" stroke-linecap="round" stroke-linejoin="round"/>
<path d="M20.8278 20.3618L20.6871 37.0493" stroke="#191C1F" stroke-width="1.5" stroke-linecap="round" stroke-linejoin="round"/>
</svg>
