<svg width="19" height="18" viewBox="0 0 19 18" fill="none" xmlns="http://www.w3.org/2000/svg">
<mask id="mask0_4128_26598" style="mask-type:alpha" maskUnits="userSpaceOnUse" x="0" y="0" width="19" height="18">
<rect x="0.625" width="18" height="18" fill="#D9D9D9"/>
</mask>
<g mask="url(#mask0_4128_26598)">
<path d="M5.53409 14.25C4.96591 14.25 4.48295 14.0586 4.08523 13.6758C3.6875 13.293 3.48864 12.8281 3.48864 12.2812H2.125V5.0625C2.125 4.70156 2.25864 4.39269 2.52591 4.13587C2.79273 3.87862 3.11364 3.75 3.48864 3.75H13.0341V6.375H15.0795L17.125 9V12.2812H15.7614C15.7614 12.8281 15.5625 13.293 15.1648 13.6758C14.767 14.0586 14.2841 14.25 13.7159 14.25C13.1477 14.25 12.6648 14.0586 12.267 13.6758C11.8693 13.293 11.6705 12.8281 11.6705 12.2812H7.57955C7.57955 12.8281 7.38068 13.293 6.98295 13.6758C6.58523 14.0586 6.10227 14.25 5.53409 14.25ZM5.53409 12.9375C5.72727 12.9375 5.88932 12.8745 6.02023 12.7485C6.15068 12.6229 6.21591 12.4672 6.21591 12.2812C6.21591 12.0953 6.15068 11.9396 6.02023 11.814C5.88932 11.688 5.72727 11.625 5.53409 11.625C5.34091 11.625 5.17886 11.688 5.04795 11.814C4.9175 11.9396 4.85227 12.0953 4.85227 12.2812C4.85227 12.4672 4.9175 12.6229 5.04795 12.7485C5.17886 12.8745 5.34091 12.9375 5.53409 12.9375ZM13.7159 12.9375C13.9091 12.9375 14.0709 12.8745 14.2014 12.7485C14.3323 12.6229 14.3977 12.4672 14.3977 12.2812C14.3977 12.0953 14.3323 11.9396 14.2014 11.814C14.0709 11.688 13.9091 11.625 13.7159 11.625C13.5227 11.625 13.3609 11.688 13.2305 11.814C13.0995 11.9396 13.0341 12.0953 13.0341 12.2812C13.0341 12.4672 13.0995 12.6229 13.2305 12.7485C13.3609 12.8745 13.5227 12.9375 13.7159 12.9375ZM13.0341 9.65625H15.9318L14.3977 7.6875H13.0341V9.65625Z" fill="#9C9C9C"/>
</g>
</svg>
