<svg width="13" height="11" viewBox="0 0 13 11" fill="none" xmlns="http://www.w3.org/2000/svg">
<path fill-rule="evenodd" clip-rule="evenodd" d="M9.7752 1.94961C9.7752 2.69519 9.17078 3.29961 8.42519 3.29961H7.0752V1.94961C7.0752 1.20402 7.67961 0.599609 8.42519 0.599609C9.17078 0.599609 9.7752 1.20402 9.7752 1.94961ZM1.3252 4.19961C0.772911 4.19961 0.325195 4.64732 0.325195 5.19961V9.49961C0.325195 10.0519 0.77291 10.4996 1.32519 10.4996H6.17519V4.19961H1.3252ZM7.0752 4.19961V10.4996H11.9252C12.4775 10.4996 12.9252 10.0519 12.9252 9.49961V5.19961C12.9252 4.64732 12.4775 4.19961 11.9252 4.19961H7.0752ZM4.82519 3.29961C4.07961 3.29961 3.4752 2.69519 3.4752 1.94961C3.4752 1.20402 4.07961 0.599609 4.82519 0.599609C5.57078 0.599609 6.17519 1.20402 6.17519 1.94961V3.29961H4.82519Z" fill="#9C9C9C"/>
</svg>
