<svg width="33" height="29" viewBox="0 0 33 29" fill="none" xmlns="http://www.w3.org/2000/svg">
<path d="M31.9214 16.6118H26.9214C26.2583 16.6118 25.6225 16.8752 25.1536 17.3441C24.6848 17.8129 24.4214 18.4488 24.4214 19.1118V25.3618C24.4214 26.0249 24.6848 26.6608 25.1536 27.1296C25.6225 27.5985 26.2583 27.8618 26.9214 27.8618H29.4214C30.0844 27.8618 30.7203 27.5985 31.1892 27.1296C31.658 26.6608 31.9214 26.0249 31.9214 25.3618V16.6118ZM31.9214 16.6118C31.9215 14.6315 31.5294 12.6707 30.7677 10.8426C30.0061 9.0145 28.89 7.35533 27.4839 5.96081C26.0777 4.56628 24.4094 3.46401 22.575 2.71758C20.7407 1.97115 18.7767 1.59535 16.7964 1.61185C14.8174 1.59742 12.8551 1.97475 11.0225 2.72211C9.19001 3.46947 7.52349 4.57207 6.11901 5.96639C4.71452 7.36071 3.59984 9.01917 2.83919 10.8462C2.07854 12.6733 1.68696 14.6328 1.68701 16.6118V25.3618C1.68701 26.0249 1.9504 26.6608 2.41924 27.1296C2.88809 27.5985 3.52397 27.8618 4.18701 27.8618H6.68701C7.35005 27.8618 7.98594 27.5985 8.45478 27.1296C8.92362 26.6608 9.18701 26.0249 9.18701 25.3618V19.1118C9.18701 18.4488 8.92362 17.8129 8.45478 17.3441C7.98594 16.8752 7.35005 16.6118 6.68701 16.6118H1.68701" stroke="#191C1F" stroke-width="1.5" stroke-linecap="round" stroke-linejoin="round"/>
</svg>
