<svg width="15" height="13" viewBox="0 0 15 13" fill="none" xmlns="http://www.w3.org/2000/svg">
<path fill-rule="evenodd" clip-rule="evenodd" d="M2.6227 5.65564L7.40434 10.1758V12.6666L1.35875 6.95035C-0.230911 5.36069 -0.230911 2.78213 1.35875 1.19247C2.15403 0.397189 3.19541 0 4.23769 0C5.27997 0 6.32135 0.397189 7.11663 1.19247C7.19387 1.26971 7.25849 1.3546 7.3229 1.4392C7.34979 1.47452 7.37663 1.50978 7.40434 1.54442C7.43205 1.50978 7.4589 1.47452 7.48579 1.4392C7.55019 1.3546 7.61482 1.26971 7.69206 1.19247C8.48734 0.397189 9.52872 0 10.571 0C11.6133 0 12.6547 0.397189 13.4499 1.19247C14.5963 2.3388 14.903 3.99541 14.3963 5.42855H12.3678C13.0365 4.54279 12.9767 3.27884 12.1706 2.4718C11.7436 2.04475 11.1754 1.80952 10.571 1.80952C9.86529 1.80952 9.21567 2.15423 8.92615 2.53513C8.84093 2.64508 8.49985 3.00511 8.15955 3.36431C7.8278 3.71448 7.49679 4.06386 7.40434 4.17998C7.31189 4.06386 6.98089 3.71448 6.64914 3.3643C6.30884 3.00511 5.96775 2.64508 5.88254 2.53513C5.59121 2.15152 4.94793 1.80952 4.23769 1.80952C3.63331 1.80952 3.06512 2.04475 2.63808 2.4718C1.76137 3.34851 1.75684 4.77169 2.6227 5.65564ZM12.8326 9.04753H14.6421V10.857H12.8326V12.6666H11.0231V10.857H9.21359V9.04753H11.0231V7.23802H12.8326V9.04753Z" fill="#18A661"/>
</svg>
