<svg width="24" height="24" viewBox="0 0 24 24" fill="none" xmlns="http://www.w3.org/2000/svg">
<path fill-rule="evenodd" clip-rule="evenodd" d="M6 7C6 7.55228 5.55228 8 5 8C4.44772 8 4 7.55228 4 7C4 6.44772 4.44772 6 5 6C5.55228 6 6 6.44772 6 7ZM8 12C8 11.641 8.29101 11.35 8.65 11.35H19.35C19.709 11.35 20 11.641 20 12C20 12.359 19.709 12.65 19.35 12.65H8.65C8.29101 12.65 8 12.359 8 12ZM8 16.9998C8 16.6408 8.29101 16.3498 8.65 16.3498H19.35C19.709 16.3498 20 16.6408 20 16.9998C20 17.3588 19.709 17.6498 19.35 17.6498H8.65C8.29101 17.6498 8 17.3588 8 16.9998ZM5 13C5.55228 13 6 12.5523 6 12C6 11.4477 5.55228 11 5 11C4.44772 11 4 11.4477 4 12C4 12.5523 4.44772 13 5 13ZM6 17C6 17.5523 5.55228 18 5 18C4.44772 18 4 17.5523 4 17C4 16.4477 4.44772 16 5 16C5.55228 16 6 16.4477 6 17ZM8 6.9999C8 6.64092 8.29101 6.3499 8.65 6.3499H19.35C19.709 6.3499 20 6.64092 20 6.9999C20 7.35889 19.709 7.6499 19.35 7.6499H8.65C8.29101 7.6499 8 7.35889 8 6.9999Z" fill="#17171B"/>
</svg>
