<svg width="24" height="24" viewBox="0 0 24 24" fill="none" xmlns="http://www.w3.org/2000/svg">
<path fill-rule="evenodd" clip-rule="evenodd" d="M3.28257 6.953L11.6911 2.09836C11.8268 2.00165 12.0036 1.97293 12.1657 2.02708C12.2101 2.04154 12.2526 2.06184 12.292 2.08764L20.7352 6.96232C20.8872 7.0501 20.9793 7.20189 20.9969 7.36399C21.001 7.4014 21.0011 7.43935 20.997 7.4772V17.1481C21.0185 17.3499 20.9223 17.5549 20.7352 17.6629L12.2975 22.5344C12.2343 22.577 12.1629 22.6052 12.0885 22.6176C11.9509 22.6413 11.8093 22.6093 11.6955 22.5301L3.28118 17.672C3.13585 17.5947 3.03085 17.4515 3.00588 17.2823C3.00129 17.2517 2.99936 17.2207 3.00019 17.1895V7.43493C2.99768 7.34059 3.02037 7.24439 3.07102 7.15667C3.12288 7.06684 3.19709 6.99796 3.28257 6.953ZM12.0008 3.14214L4.58864 7.42156L7.80997 9.28139L15.2221 5.00197L12.0008 3.14214ZM12.0003 11.7007L8.86879 9.8927L16.281 5.61328L19.4125 7.42127L12.0003 11.7007ZM12.528 12.6186L19.9382 8.34037V16.9005L12.528 21.1787V12.6186ZM11.4692 12.6167V21.1768L4.05901 16.8985V8.3384L7.5 10.3251V13.4706C7.5 13.763 7.73703 14 8.02941 14C8.3218 14 8.55882 13.763 8.55882 13.4706V10.9364L11.4692 12.6167Z" fill="#17171B"/>
</svg>
