<svg width="21" height="20" viewBox="0 0 21 20" fill="none" xmlns="http://www.w3.org/2000/svg">
<path d="M10.5787 20C5.05574 20 0.578735 15.523 0.578735 10C0.578735 4.477 5.05574 0 10.5787 0C16.1017 0 20.5787 4.477 20.5787 10C20.5787 15.523 16.1017 20 10.5787 20ZM5.59174 16.256C7.00728 17.3877 8.76641 18.0029 10.5787 18C12.5487 18 14.3517 17.288 15.7457 16.108C15.0945 15.4397 14.3158 14.9089 13.4558 14.5468C12.5958 14.1847 11.6719 13.9988 10.7387 14C9.77132 13.9989 8.81424 14.1989 7.9282 14.5872C7.04216 14.9756 6.24652 15.5439 5.59174 16.256ZM4.19474 14.82C5.03519 13.9281 6.04941 13.2177 7.17487 12.7327C8.30034 12.2477 9.51322 11.9984 10.7387 12C11.9204 11.9985 13.0907 12.2304 14.1825 12.6824C15.2743 13.1344 16.266 13.7976 17.1007 14.634C17.9568 13.4291 18.4624 12.0106 18.5613 10.5359C18.6602 9.06119 18.3487 7.58789 17.6612 6.27946C16.9738 4.97102 15.9373 3.87862 14.6667 3.12345C13.3961 2.36827 11.9412 1.97984 10.4633 2.00125C8.98546 2.02267 7.5424 2.45308 6.29426 3.24476C5.04611 4.03643 4.04169 5.1584 3.39243 6.4862C2.74316 7.814 2.47443 9.29571 2.61605 10.7669C2.75767 12.2382 3.30411 13.6414 4.19474 14.821V14.82ZM10.5787 11C9.51787 11 8.50045 10.5786 7.75031 9.82843C7.00016 9.07828 6.57874 8.06087 6.57874 7C6.57874 5.93913 7.00016 4.92172 7.75031 4.17157C8.50045 3.42143 9.51787 3 10.5787 3C11.6396 3 12.657 3.42143 13.4072 4.17157C14.1573 4.92172 14.5787 5.93913 14.5787 7C14.5787 8.06087 14.1573 9.07828 13.4072 9.82843C12.657 10.5786 11.6396 11 10.5787 11ZM10.5787 9C11.1092 9 11.6179 8.78929 11.9929 8.41421C12.368 8.03914 12.5787 7.53043 12.5787 7C12.5787 6.46957 12.368 5.96086 11.9929 5.58579C11.6179 5.21071 11.1092 5 10.5787 5C10.0483 5 9.53959 5.21071 9.16452 5.58579C8.78945 5.96086 8.57874 6.46957 8.57874 7C8.57874 7.53043 8.78945 8.03914 9.16452 8.41421C9.53959 8.78929 10.0483 9 10.5787 9Z" fill="#090909"/>
</svg>
